<?xml version="1.0" encoding="UTF-8"?>
<!DOCTYPE svg PUBLIC "-//W3C//DTD SVG 1.1//EN" "http://www.w3.org/Graphics/SVG/1.1/DTD/svg11.dtd">
<!-- Creator: CorelDRAW 2017 -->
<svg xmlns="http://www.w3.org/2000/svg" xml:space="preserve" width="52.1128mm" height="47.221mm" version="1.1" style="shape-rendering:geometricPrecision; text-rendering:geometricPrecision; image-rendering:optimizeQuality; fill-rule:evenodd; clip-rule:evenodd"
viewBox="0 0 5211.28 4722.1"
 xmlns:xlink="http://www.w3.org/1999/xlink">
 <defs>
  <style type="text/css">
   <![CDATA[
    .str1 {stroke:black;stroke-width:67.73;stroke-miterlimit:22.9256}
    .str0 {stroke:black;stroke-width:20;stroke-miterlimit:22.9256}
    .fil0 {fill:none}
    .fil1 {fill:black;fill-rule:nonzero}
   ]]>
  </style>
 </defs>
 <g id="Capa_x0020_1">
  <metadata id="CorelCorpID_0Corel-Layer"/>
  <path id="vene_dx" class="fil0 str0" d="M1146.95 214.48c0,0 -59.26,694.27 76.2,1092.2 135.46,397.93 338.66,1159.92 372.53,1253.06 33.87,93.14 186.27,778.94 203.2,948.27 16.93,169.33 0,548.76 0,548.76 0,0 158.79,-77.77 303.76,0 144.97,77.77 185.23,32.29 211.67,0 26.44,-32.29 -15.89,-133.89 -24.36,-210.09 -8.47,-76.2 -84.68,-609.6 -93.14,-694.27 -8.46,-84.67 -76.19,-965.2 -33.86,-1244.6 42.33,-279.4 143.94,-702.74 203.2,-745.07 59.26,-42.33 67.73,-33.86 67.73,-33.86 0,0 8.46,-50.81 42.33,-67.74 33.87,-16.93 42.34,-55.04 29.64,-63.5 -12.7,-8.46 -160.88,59.27 -182.04,8.47 -21.16,-50.8 -8.46,-182.03 16.94,-215.9 25.4,-33.87 63.49,-59.27 84.66,-59.27 21.17,0 66.35,-24.87 76.2,-50.8 9.85,-25.93 0.01,-63.49 -84.66,-33.86 -84.67,29.63 -93.13,-0.01 -88.9,-42.34 4.23,-42.33 21.16,-122.76 33.86,-160.86 12.7,-38.1 12.7,-67.74 12.7,-67.74 0,0 -29.62,12.7 -122.76,-38.1 -93.14,-50.8 -118.54,-63.5 -143.94,-63.5 -25.4,0 -67.72,-12.69 -84.66,156.64 -16.94,169.33 -8.46,300.56 -25.4,364.06 -16.94,63.5 -38.1,249.77 -84.67,325.97 -46.57,76.2 -63.5,152.39 -114.3,169.33 -50.8,16.94 -97.37,-29.64 -127,-139.7 -29.63,-110.06 -76.2,-309.04 -76.2,-355.6 0,-46.56 -21.17,-169.32 -25.4,-237.06 -4.23,-67.74 -12.7,-249.77 -12.7,-249.77 0,0 -130.27,8.47 -211.67,-42.33 -81.4,-50.8 -198.96,-50.8 -198.96,-50.8zm0 0c0,0 203.4,55.03 304.9,4.23 101.5,-50.8 126.9,46.57 126.9,46.57 0,0 5.06,48.37 -59.03,42.61m588.19 -34.15c0,0 110.06,38.1 190.5,8.47 80.44,-29.63 110.06,33.87 101.6,59.27 -8.46,25.4 -14.69,44.32 -51.85,33.86m-165.73 3728.52c0,0 -6.79,-58.21 -176.12,9.52 -169.33,67.73 -183.56,11.11 -183.56,11.11 0,0 -60.26,-70.26 38.37,-89.37m538.97 -3296.54c0,0 91.58,50.48 111.37,15.07 19.79,-35.41 15.75,-51.23 -39.38,-41.2m-73.72 429.08c0,0 154.05,4.29 99.02,-76.15"/>
  <path id="vene-sx" class="fil0 str0" d="M3915.55 201.78c0,0 21.16,228.59 21.16,249.76 0,21.17 38.1,270.94 33.87,351.37 -4.23,80.43 -71.96,613.84 -105.83,706.97 -33.87,93.13 -237.07,651.92 -287.87,948.26 -50.8,296.34 -118.53,770.46 -118.53,939.8 0,169.34 0,637.18 0,637.18 0,0 -97.36,-141.87 -330.2,-10.64 -232.84,131.23 -190.51,-105.84 -169.34,-160.87 21.17,-55.03 110.07,-787.39 110.07,-905.93 0,-118.54 39.61,-627.53 28.27,-800.6 -11.34,-173.07 -79.83,-543.52 -155.65,-722.36 -75.82,-178.84 -91.24,-255.06 -172.43,-293.15 -81.19,-38.09 -98.12,-63.49 -98.12,-63.49 0,0 16.93,-50.84 16.93,-69.89 0,-19.05 118.53,44.48 131.23,-23.25 12.7,-67.73 17.24,-181.74 -38.1,-228.6 -55.34,-46.86 -93.13,-46.86 -93.13,-46.86 0,0 0,-28.32 0,-61.13 0,-32.81 84.67,61.43 101.6,2.16 16.93,-59.27 21.17,-97.37 0,-160.87 -21.17,-63.5 -8.47,-139.7 -8.47,-139.7 0,0 41.58,90.2 110.07,59.27 68.49,-30.93 93.13,-93.13 114.3,-105.83 21.17,-12.7 93.13,-25.41 114.3,-4.24 21.17,21.17 29.64,101.6 33.87,186.27 4.23,84.67 46.56,355.6 71.96,419.1 25.4,63.5 76.2,321.73 122.77,355.6 46.57,33.87 80.43,-50.79 114.3,-169.33 33.87,-118.54 63.49,-266.7 67.73,-381 4.24,-114.3 26.74,-364.08 16.94,-436.04 -9.8,-71.96 29.64,67.74 127,29.64 97.36,-38.1 90.48,-88.9 115.09,-101.6 24.61,-12.7 62.71,-38.1 126.21,0zm-1134.54 148.16c0,0 241.3,-50.8 165.1,12.7m600.84 -109.6c0,0 60.82,-93.09 242.39,-42.29m-330.99 3824.37c0,0 -165.78,168.07 -298.79,-27.12m-399.85 -3268.12c0,0 -59.12,76.68 -88.76,61.39 -29.64,-15.29 -9.69,-65.79 25.4,-78.79m52.04 408.98c0,0 -73.2,60.92 -90.14,27.05 -16.94,-33.87 -1.99,-53.06 21.54,-89.26"/>
  <path id="v_3" class="fil0 str1" d="M492.91 1617.08c144.96,0 262.47,117.51 262.47,262.47 0,144.96 -117.51,262.47 -262.47,262.47 -144.96,0 -262.47,-117.51 -262.47,-262.47 0,-144.96 117.51,-262.47 262.47,-262.47zm262.47 262.47l1769.53 0"/>
  <path id="v_4" class="fil0 str1" d="M4719.88 1617.08c144.96,0 262.47,117.51 262.47,262.47 0,144.96 -117.51,262.47 -262.47,262.47 -144.96,0 -262.47,-117.51 -262.47,-262.47 0,-144.96 117.51,-262.47 262.47,-262.47zm-2032 262.47l1769.53 0"/>
  <path id="v_6" class="fil0 str1" d="M4719.88 2604.82c144.96,0 262.47,117.51 262.47,262.47 0,144.96 -117.51,262.47 -262.47,262.47 -144.96,0 -262.47,-117.51 -262.47,-262.47 0,-144.96 117.51,-262.47 262.47,-262.47zm-2032 262.47l1769.53 0"/>
  <path id="v_5" class="fil0 str1" d="M492.91 2604.82c144.96,0 262.47,117.51 262.47,262.47 0,144.96 -117.51,262.47 -262.47,262.47 -144.96,0 -262.47,-117.51 -262.47,-262.47 0,-144.96 117.51,-262.47 262.47,-262.47zm262.47 262.47l1769.53 0"/>
  <path id="v_2" class="fil0 str1" d="M4719.88 629.34c144.96,0 262.47,117.51 262.47,262.47 0,144.96 -117.51,262.47 -262.47,262.47 -144.96,0 -262.47,-117.51 -262.47,-262.47 0,-144.96 117.51,-262.47 262.47,-262.47zm-1282.87 262.47l1020.4 0"/>
  <path id="v_1" class="fil0 str1" d="M492.91 629.34c144.96,0 262.47,117.51 262.47,262.47 0,144.96 -117.51,262.47 -262.47,262.47 -144.96,0 -262.47,-117.51 -262.47,-262.47 0,-144.96 117.51,-262.47 262.47,-262.47zm262.47 262.47l1020.4 0"/>
  <path id="dx" class="fil1" d="M983.22 4500.56l0 -353.9 121.92 0c27.52,0 48.52,1.64 63.02,5.02 20.27,4.7 37.57,13.18 51.9,25.37 18.7,15.82 32.62,35.92 41.85,60.47 9.31,24.55 13.92,52.64 13.92,84.19 0,26.86 -3.13,50.67 -9.39,71.43 -6.26,20.76 -14.33,37.97 -24.14,51.57 -9.88,13.59 -20.59,24.3 -32.29,32.04 -11.61,7.83 -25.7,13.76 -42.18,17.8 -16.56,4.03 -35.5,6.01 -56.92,6.01l-127.69 0zm46.96 -41.52l75.46 0c23.31,0 41.6,-2.14 54.86,-6.51 13.26,-4.36 23.81,-10.46 31.72,-18.37 11.04,-11.12 19.69,-26.11 25.86,-44.9 6.18,-18.78 9.31,-41.51 9.31,-68.29 0,-37.07 -6.09,-65.57 -18.2,-85.51 -12.11,-19.93 -26.86,-33.28 -44.24,-40.04 -12.52,-4.86 -32.71,-7.24 -60.55,-7.24l-74.22 0 0 270.86zm274.07 41.52l136.75 -183.63 -120.44 -170.27 55.77 0 64.51 90.53c13.43,18.78 22.73,33.12 28.09,43.09 7.99,-12.36 17.38,-25.54 28.17,-39.46l70.69 -94.16 51.32 0 -122.91 168.22 132.3 185.68 -57.5 0 -89.3 -126.21c-5.11,-7.16 -9.97,-14.33 -14.5,-21.41 -7.91,11.86 -13.51,20.18 -16.97,24.87l-89.71 122.75 -56.27 0z"/>
  <path id="sx" class="fil1" d="M3681.48 4386.88l43.99 -3.96c2.06,17.8 6.92,32.38 14.58,43.83 7.66,11.37 19.52,20.59 35.59,27.68 16.06,7 34.18,10.54 54.29,10.54 17.87,0 33.61,-2.63 47.28,-7.99 13.68,-5.35 23.81,-12.69 30.48,-21.99 6.68,-9.31 10.05,-19.45 10.05,-30.32 0,-11.04 -3.21,-20.68 -9.64,-29 -6.42,-8.24 -17.05,-15.16 -31.88,-20.84 -9.47,-3.62 -30.48,-9.39 -63.02,-17.22 -32.54,-7.82 -55.27,-15.16 -68.29,-22.08 -16.89,-8.89 -29.41,-19.93 -37.65,-33.03 -8.32,-13.1 -12.44,-27.84 -12.44,-44.07 0,-17.96 5.11,-34.69 15.24,-50.17 10.14,-15.57 24.88,-27.35 44.41,-35.43 19.44,-8.07 41.1,-12.11 64.91,-12.11 26.2,0 49.35,4.21 69.36,12.69 20.02,8.4 35.43,20.84 46.22,37.32 10.79,16.39 16.56,35.01 17.38,55.77l-44.98 3.46c-2.39,-22.32 -10.54,-39.21 -24.46,-50.58 -13.93,-11.45 -34.52,-17.14 -61.71,-17.14 -28.34,0 -49.01,5.19 -61.95,15.57 -12.93,10.38 -19.44,22.91 -19.44,37.57 0,12.69 4.62,23.15 13.76,31.39 9.06,8.15 32.54,16.64 70.6,25.2 38.06,8.65 64.17,16.15 78.34,22.58 20.52,9.47 35.76,21.41 45.56,36 9.8,14.49 14.66,31.22 14.66,50.17 0,18.86 -5.35,36.49 -16.14,53.13 -10.8,16.64 -26.2,29.57 -46.38,38.8 -20.19,9.23 -42.84,13.84 -68.13,13.84 -31.97,0 -58.74,-4.69 -80.32,-14 -21.67,-9.31 -38.56,-23.32 -50.83,-42.1 -12.36,-18.7 -18.78,-39.87 -19.44,-63.51zm309.08 113.68l136.75 -183.63 -120.44 -170.27 55.77 0 64.51 90.53c13.43,18.78 22.73,33.12 28.09,43.09 7.99,-12.36 17.38,-25.54 28.17,-39.46l70.69 -94.16 51.32 0 -122.91 168.22 132.3 185.68 -57.5 0 -89.3 -126.21c-5.11,-7.16 -9.97,-14.33 -14.5,-21.41 -7.91,11.86 -13.51,20.18 -16.97,24.87l-89.71 122.75 -56.27 0z"/>
 </g>
</svg>
