<?xml version="1.0" encoding="UTF-8"?>
<!DOCTYPE svg PUBLIC "-//W3C//DTD SVG 1.1//EN" "http://www.w3.org/Graphics/SVG/1.1/DTD/svg11.dtd">
<!-- Creator: CorelDRAW 2017 -->
<svg xmlns="http://www.w3.org/2000/svg" xml:space="preserve" width="55.5mm" height="75.5mm" version="1.1" style="shape-rendering:geometricPrecision; text-rendering:geometricPrecision; image-rendering:optimizeQuality; fill-rule:evenodd; clip-rule:evenodd"
viewBox="0 0 5550 7550"
 xmlns:xlink="http://www.w3.org/1999/xlink">
 <defs>
  <style type="text/css">
   <![CDATA[
    .str1 {stroke:black;stroke-width:42.33;stroke-miterlimit:22.9256}
    .str0 {stroke:black;stroke-width:20;stroke-miterlimit:22.9256}
    .fil0 {fill:none}
    .fil1 {fill:white}
    .fil2 {fill:black;fill-rule:nonzero}
   ]]>
  </style>
 </defs>
 <g id="Capa_x0020_1">
  <metadata id="CorelCorpID_0Corel-Layer"/>
  <path id="vene" class="fil0 str0" d="M1544.04 1480.59l0 5444.07m164.64 0l0 -5420.95m2095.96 -73.92l0 5494.87m139.34 -5494.87l0 5494.87m-1806.57 0c0,-94.25 -9.17,-4021.66 -9.17,-4140.2 0,-118.54 32.95,-677.53 -419.56,-660.5m-557.55 4800.7c0,0 3.44,-1981.2 3.44,-2209.8 0,-228.6 -50.8,-677.55 389.47,-698.61m1812.72 2908.41c0,0 -0.85,-3852.33 -0.85,-4089.4 0,-237.07 -67.74,-772.74 448.73,-772.74"/>
  <g>
   <path id="sx-3" class="fil1" d="M3227.38 6704.45l1226.4 0 -1226.4 0zm613.2 -512.23c406.81,0 736.6,229.34 736.6,512.23 0,282.89 -329.79,512.23 -736.6,512.23 -406.81,0 -736.6,-229.34 -736.6,-512.23 0,-282.89 329.79,-512.23 736.6,-512.23z"/>
   <path id="1" class="fil0 str1" d="M3227.38 6704.45l1226.4 0m-613.2 -512.23c406.81,0 736.6,229.34 736.6,512.23 0,282.89 -329.79,512.23 -736.6,512.23 -406.81,0 -736.6,-229.34 -736.6,-512.23 0,-282.89 329.79,-512.23 736.6,-512.23z"/>
  </g>
  <g>
   <path id="sx-2" class="fil1" d="M3227.38 4214.18l1226.4 0 -1226.4 0zm613.2 -512.23c406.81,0 736.6,229.34 736.6,512.23 0,282.89 -329.79,512.23 -736.6,512.23 -406.81,0 -736.6,-229.34 -736.6,-512.23 0,-282.89 329.79,-512.23 736.6,-512.23z"/>
   <path id="1" class="fil0 str1" d="M3227.38 4214.18l1226.4 0m-613.2 -512.23c406.81,0 736.6,229.34 736.6,512.23 0,282.89 -329.79,512.23 -736.6,512.23 -406.81,0 -736.6,-229.34 -736.6,-512.23 0,-282.89 329.79,-512.23 736.6,-512.23z"/>
  </g>
  <g>
   <path id="sx-1" class="fil1" d="M4447.91 1439.58l-1129.63 621.78 1129.63 -621.78zm-564.82 -201.34c-406.81,118.58 -736.6,444.04 -736.6,726.94 0,282.89 329.79,416.1 736.6,297.52 406.81,-118.58 736.6,-444.05 736.6,-726.94 0,-282.89 -329.79,-416.1 -736.6,-297.52z"/>
   <path id="1" class="fil0 str1" d="M4447.91 1439.58l-1129.63 621.78m564.81 -823.12c-406.81,118.58 -736.6,444.04 -736.6,726.94 0,282.89 329.79,416.1 736.6,297.52 406.81,-118.58 736.6,-444.05 736.6,-726.94 0,-282.89 -329.79,-416.1 -736.6,-297.52z"/>
  </g>
  <g>
   <path id="dx-3" class="fil1" d="M999.21 6704.45l1226.4 0 -1226.4 0zm613.2 -512.23c406.81,0 736.6,229.34 736.6,512.23 0,282.89 -329.79,512.23 -736.6,512.23 -406.81,0 -736.6,-229.34 -736.6,-512.23 0,-282.89 329.79,-512.23 736.6,-512.23z"/>
   <path id="1" class="fil0 str1" d="M999.21 6704.45l1226.4 0m-613.2 -512.23c406.81,0 736.6,229.34 736.6,512.23 0,282.89 -329.79,512.23 -736.6,512.23 -406.81,0 -736.6,-229.34 -736.6,-512.23 0,-282.89 329.79,-512.23 736.6,-512.23z"/>
  </g>
  <g>
   <path id="dx-2" class="fil1" d="M1032.44 4257.66l1226.4 0 -1226.4 0zm615.83 -512.23c406.81,0 736.6,229.34 736.6,512.23 0,282.89 -329.79,512.23 -736.6,512.23 -406.81,0 -736.6,-229.34 -736.6,-512.23 0,-282.89 329.79,-512.23 736.6,-512.23z"/>
   <path id="1" class="fil0 str1" d="M1032.44 4257.66l1226.4 0m-610.57 -512.23c406.81,0 736.6,229.34 736.6,512.23 0,282.89 -329.79,512.23 -736.6,512.23 -406.81,0 -736.6,-229.34 -736.6,-512.23 0,-282.89 329.79,-512.23 736.6,-512.23z"/>
  </g>
  <g>
   <path id="dx-1" class="fil1" d="M1032.44 1506.83l1226.4 613 -1226.4 -613zm613.2 -205.73c406.81,118.58 736.6,444.04 736.6,726.94 0,282.89 -329.79,416.1 -736.6,297.52 -406.81,-118.58 -736.6,-444.05 -736.6,-726.94 0,-282.89 329.79,-416.1 736.6,-297.52z"/>
   <path id="1" class="fil0 str1" d="M1032.44 1506.83l1226.4 613m-613.2 -818.73c406.81,118.58 736.6,444.04 736.6,726.94 0,282.89 -329.79,416.1 -736.6,297.52 -406.81,-118.58 -736.6,-444.05 -736.6,-726.94 0,-282.89 329.79,-416.1 736.6,-297.52z"/>
  </g>
  <path id="dx" class="fil2" d="M1590.92 823.9l0 -55.74c-27.79,43.32 -68.72,65.05 -122.76,65.05 -35,0 -67.17,-9.59 -96.38,-28.92 -29.35,-19.2 -52.07,-46.15 -68.3,-80.58 -16.09,-34.57 -24.13,-74.22 -24.13,-119.1 0,-43.74 7.34,-83.39 21.87,-119.1 14.68,-35.56 36.55,-62.93 65.76,-81.84 29.07,-19.05 61.81,-28.51 97.79,-28.51 26.53,0 50.1,5.65 70.7,16.8 20.6,11.15 37.39,25.82 50.37,43.74l0 -218.02 74.51 0 0 606.22 -69.43 0zm-235.37 -219.15c0,56.17 11.85,98.08 35.7,125.88 23.71,27.79 51.79,41.62 84.1,41.62 32.6,0 60.26,-13.26 83.12,-39.79 22.72,-26.53 34.15,-67.03 34.15,-121.5 0,-59.83 -11.57,-103.86 -34.86,-131.94 -23.14,-28.08 -51.78,-42.05 -85.79,-42.05 -33.16,0 -60.82,13.41 -83.12,40.36 -22.15,26.95 -33.3,69.43 -33.3,127.42zm371.83 219.15l160.44 -227.61 -148.59 -211.81 91.58 0 69.43 103.72c12.84,19.47 23,35.27 30.2,47.69 12.56,-17.64 23.71,-33.58 33.73,-47.84l73.09 -103.57 91.02 0 -149.44 211.81 159.17 227.61 -90.59 0 -90.87 -135.47 -20.75 -32.59 -117.4 168.06 -91.02 0z"/>
  <path id="sx" class="fil2" d="M3398.24 692.67l73.66 -11.86c4.09,29.5 15.66,52.07 34.57,67.88 18.91,15.66 45.44,23.56 79.3,23.56 34.29,0 59.69,-6.91 76.35,-20.88 16.51,-13.83 24.83,-30.2 24.83,-48.97 0,-16.79 -7.48,-30.05 -22.29,-39.65 -10.45,-6.63 -35.85,-14.96 -76.2,-25.26 -54.47,-13.69 -92.15,-25.54 -113.32,-35.56 -21.02,-10.16 -36.97,-23.99 -47.83,-41.77 -10.87,-17.64 -16.37,-37.25 -16.37,-58.7 0,-19.61 4.51,-37.68 13.4,-54.33 9.03,-16.65 21.17,-30.48 36.55,-41.48 11.57,-8.47 27.38,-15.67 47.27,-21.6 20.04,-5.92 41.35,-8.89 64.21,-8.89 34.43,0 64.63,4.94 90.59,14.96 26.11,9.88 45.3,23.43 57.72,40.36 12.27,17.08 20.88,39.79 25.54,68.3l-72.82 10.16c-3.24,-22.86 -12.84,-40.78 -28.64,-53.62 -15.81,-12.84 -38.1,-19.19 -67.03,-19.19 -34.01,0 -58.42,5.64 -72.95,16.93 -14.54,11.29 -21.88,24.55 -21.88,39.65 0,9.6 2.97,18.35 9.03,26.11 6.07,7.9 15.53,14.53 28.51,19.75 7.48,2.82 29.21,9.17 65.62,19.05 52.49,13.97 89.18,25.54 110.06,34.43 20.89,8.89 37.26,22.02 49.11,38.95 11.99,17.07 17.92,38.24 17.92,63.64 0,24.7 -7.2,47.98 -21.73,69.85 -14.53,21.87 -35.42,38.81 -62.65,50.8 -27.38,12 -58.28,17.92 -92.71,17.92 -57.01,0 -100.62,-11.85 -130.53,-35.42 -29.92,-23.7 -48.97,-58.7 -57.29,-105.12zm402.17 131.23l160.44 -227.61 -148.59 -211.81 91.58 0 69.43 103.72c12.84,19.47 23,35.27 30.2,47.69 12.56,-17.64 23.71,-33.58 33.73,-47.84l73.09 -103.57 91.02 0 -149.44 211.81 159.17 227.61 -90.59 0 -90.87 -135.47 -20.75 -32.59 -117.4 168.06 -91.02 0z"/>
 </g>
</svg>
