<?xml version="1.0" encoding="UTF-8"?>
<!DOCTYPE svg PUBLIC "-//W3C//DTD SVG 1.1//EN" "http://www.w3.org/Graphics/SVG/1.1/DTD/svg11.dtd">
<!-- Creator: CorelDRAW 2017 -->
<svg xmlns="http://www.w3.org/2000/svg" xml:space="preserve" width="35.0104mm" height="75.5mm" version="1.1" style="shape-rendering:geometricPrecision; text-rendering:geometricPrecision; image-rendering:optimizeQuality; fill-rule:evenodd; clip-rule:evenodd"
viewbox="0 0 3501.04 7550"
 xmlns:xlink="http://www.w3.org/1999/xlink">
 <defs>
  <style type="text/css">
   <![CDATA[
    .str1 {stroke:black;stroke-width:67.73;stroke-miterlimit:22.9256}
    .str0 {stroke:black;stroke-width:20;stroke-miterlimit:22.9256}
    .fil0 {fill:none}
   ]]>
  </style>
 </defs>
 <g id="Capa_x0020_1">
  <metadata id="CorelCorpID_0Corel-Layer"/>
  <path id="base" class="fil0 str0" d="M1491.04 251.19c0,0 16.93,948.27 -33.87,1176.87 -50.8,228.6 -93.13,541.87 -270.93,685.8 -177.8,143.93 -364.06,152.39 -431.8,313.26 -67.74,160.87 -127,609.6 -127,745.07 0,135.47 0,604.48 0,807.68 0,203.2 0,516.47 0,668.87 0,152.4 0,173.57 0,173.57 0,0 -321.74,43.22 -321.74,491.95 0,448.73 0,646.81 0,778.05 0,131.24 0,516.48 0,736.61 0,220.13 0,304.81 0,338.67 0,33.86 0,131.23 0,131.23m136.8 0l-26.73 -1976.1c0,0 -25.41,-296.32 194.73,-389.46 8.47,414.86 0,2365.56 0,2365.56m124.1 0l-30.96 -2060.76c0,0 118.53,25.39 118.53,313.26 0,287.87 0,1747.5 0,1747.5m89.37 0c-3.94,-602.55 0,-1280.87 -11.81,-1807.64 0,-309.21 -148.46,-360.19 -148.46,-390.53l11.64 -1391.72c0,0 -46.09,-868.73 74.32,-952.5 107.71,-16.95 162.74,170.23 162.74,170.23m59.27 -42.34c0,0 -159.51,-215.79 -159.51,-251.78 0,-35.99 -18.3,-203.39 40.97,-213.88 59.27,-10.49 321.74,-127 372.54,-186.27 50.8,-59.27 73.49,-76.3 127,42.33m93.13 -59.26c0,0 -84.66,-67.74 -16.93,-169.34 67.73,-101.6 143.92,-228.59 160.86,-313.26 16.94,-84.67 42.34,-245.54 42.34,-245.54 0,0 88.54,520.02 245.53,609.6 25.4,59.27 -37.75,89.58 -37.75,89.58m43.78 90.47c0,0 49.36,-119.43 93.81,-90.47 44.45,28.96 264.23,198.3 391.23,206.76 127,8.46 67.72,260.21 33.86,296.33 -33.86,36.12 -105.47,194.73 -105.47,194.73m113.94 -101.6c0,0 93.13,-186.26 127,-186.26 33.87,0 101.6,67.72 101.6,237.06 0,169.34 25.4,448.73 25.4,508 0,59.27 16.93,533.4 16.93,643.47 0,110.07 12.7,1003.3 12.7,1003.3 0,0 -190.5,105.83 -190.5,342.9 0,237.07 8.47,1967.63 8.47,1967.63m110.46 0l-8.86 -1967.63c0,0 33.87,-220.13 135.47,-228.6 0,147.29 0,2196.23 0,2196.23m72.37 0l-21.57 -2416.36c0,0 212.07,118.54 212.07,355.6 0,237.06 0,2060.76 0,2060.76m95.24 0c-0.84,-717.97 -1.67,-1435.93 -2.51,-2153.9 2.51,-197.28 -198.77,-336.89 -304.8,-378.23 0,0 0,-1093.36 0,-1190.73 0,-97.37 -36.39,-937.18 -169.34,-1148.84 -132.95,-211.66 -423.33,-76.2 -550.33,-423.33 -127,-347.13 -245.53,-321.73 -245.53,-939.8 0,-618.07 0,-812.8 0,-812.8"/>
  <line id="_1" class="fil0 str1" x1="441.17" y1="2232.39" x2="1355.57" y2= "2757.32" />
  <line id="_2" class="fil0 str1" x1="2120.22" y1="2757.32" x2="3023.5" y2= "2164.66" />
  <line id="_3" class="fil0 str1" x1="237.97" y1="4577.66" x2="1163.47" y2= "4577.66" />
  <line id="_4" class="fil0 str1" x1="2433.48" y1="4577.64" x2="3297.08" y2= "4577.64" />
 </g>
</svg>
